<svg width="539" height="127" viewBox="0 0 539 127" fill="none" xmlns="http://www.w3.org/2000/svg">
<path d="M53.3441 86.7601L50.7841 61.2881C49.1201 44.3921 39.6481 34.2801 23.9041 34.2801C9.95205 34.2801 1.24805 41.4481 1.24805 48.2321C1.24805 51.1761 3.16805 52.9681 6.24005 52.9681C12.6401 52.9681 10.5921 38.3761 23.9041 38.3761C34.1441 38.3761 38.2401 46.5681 39.6481 61.6721L39.9041 65.1281C36.4481 61.9281 30.944 60.0081 24.1601 60.0081C10.8481 60.0081 0.60805 66.6641 0.73605 78.9521C0.73605 91.2401 10.4641 98.2801 24.5441 98.2801C33.8881 98.2801 40.0321 94.6961 42.9761 89.3201C43.4881 96.3601 46.5601 97.7681 52.3201 97.7681C57.0561 97.7681 60.5121 97.0001 60.5121 95.0801C60.5121 91.8801 54.1121 94.6961 53.3441 86.7601ZM27.3601 94.1841C18.1441 94.1841 12.0001 86.7601 12.0001 77.4161C12.0001 69.4801 18.0161 64.1041 26.7201 64.1041C34.2721 64.1041 39.5201 68.3281 40.8001 74.3441L41.312 80.1041C41.5681 87.9121 35.9361 94.1841 27.3601 94.1841Z" fill="#35DF92"/>
<path d="M74.4461 97.0001H90.1901C91.7261 97.0001 92.7501 96.3601 92.7501 95.3361V94.9521C92.7501 92.3921 87.7581 92.5201 87.7581 88.0401V3.04809C87.7581 1.38409 86.3501 -0.0239059 83.7901 1.25609L73.8061 6.12009C72.6541 6.76009 72.0141 7.14409 72.0141 8.1681V8.42409C72.0141 10.3441 76.494 11.1121 76.494 16.1041V88.0401C76.494 92.5201 72.0141 92.3921 72.0141 94.9521V95.3361C72.0141 96.3601 72.9101 97.0001 74.4461 97.0001Z" fill="#35DF92"/>
<path d="M161.144 86.7601L158.584 61.2881C156.92 44.3921 147.448 34.2801 131.704 34.2801C117.752 34.2801 109.048 41.4481 109.048 48.2321C109.048 51.1761 110.968 52.9681 114.04 52.9681C120.44 52.9681 118.392 38.3761 131.704 38.3761C141.944 38.3761 146.04 46.5681 147.448 61.6721L147.704 65.1281C144.248 61.9281 138.744 60.0081 131.96 60.0081C118.648 60.0081 108.408 66.6641 108.536 78.9521C108.536 91.2401 118.264 98.2801 132.344 98.2801C141.688 98.2801 147.832 94.6961 150.776 89.3201C151.288 96.3601 154.36 97.7681 160.12 97.7681C164.856 97.7681 168.312 97.0001 168.312 95.0801C168.312 91.8801 161.912 94.6961 161.144 86.7601ZM135.16 94.1841C125.944 94.1841 119.8 86.7601 119.8 77.4161C119.8 69.4801 125.816 64.1041 134.52 64.1041C142.072 64.1041 147.32 68.3281 148.6 74.3441L149.112 80.1041C149.368 87.9121 143.736 94.1841 135.16 94.1841Z" fill="#35DF92"/>
<path d="M243.311 39.6561V39.2721C243.311 38.1201 242.799 37.4801 241.391 37.0961L232.687 34.7921C230.127 33.8961 228.591 35.0481 228.591 36.9681V43.8801C224.367 38.2481 217.327 34.2801 209.007 34.2801C191.855 34.2801 178.927 47.4641 178.927 66.1521C178.927 85.6081 192.879 98.2801 208.495 98.2801C215.919 98.2801 223.215 95.2081 227.567 89.0641V117.096C227.567 121.704 222.575 121.832 222.575 124.264V124.648C222.575 125.8 223.599 126.184 225.135 126.184H240.623C242.287 126.184 243.311 125.8 243.311 124.648V124.264C243.311 121.832 238.447 121.704 238.447 117.096V47.3361C238.447 42.3441 243.311 41.5761 243.311 39.6561ZM211.183 94.0561C198.383 93.9281 189.679 79.8481 189.935 62.3121C190.063 47.9761 197.743 38.3761 208.879 38.3761C219.119 38.3761 227.439 47.8481 227.567 55.9121V75.6241C227.567 87.9121 218.479 94.0561 211.183 94.0561Z" fill="#35DF92"/>
<path d="M283.927 98.1521C299.799 98.1521 309.783 90.4721 309.783 80.8721C309.783 55.2721 270.743 67.8161 270.743 49.3841C270.743 42.9841 276.503 38.2481 283.927 38.2481C299.671 38.2481 296.471 53.8641 303.767 53.8641C306.327 53.8641 308.375 51.9441 308.375 49.3841C308.375 42.4721 299.287 34.2801 283.415 34.2801C269.335 34.2801 259.351 41.9601 259.351 51.8161C259.351 77.0321 298.519 64.3601 298.519 83.1761C298.519 90.4721 292.119 94.4401 283.927 94.4401C266.775 94.4401 270.871 78.8241 262.935 78.8241C259.991 78.8241 257.943 80.4881 257.943 83.5601C257.943 89.5761 266.903 98.1521 283.927 98.1521Z" fill="#35DF92"/>
<path d="M377.469 86.7601L374.909 61.2881C373.245 44.3921 363.773 34.2801 348.029 34.2801C334.077 34.2801 325.373 41.4481 325.373 48.2321C325.373 51.1761 327.293 52.9681 330.365 52.9681C336.765 52.9681 334.717 38.3761 348.029 38.3761C358.269 38.3761 362.365 46.5681 363.773 61.6721L364.029 65.1281C360.573 61.9281 355.069 60.0081 348.285 60.0081C334.973 60.0081 324.733 66.6641 324.861 78.9521C324.861 91.2401 334.589 98.2801 348.669 98.2801C358.013 98.2801 364.157 94.6961 367.101 89.3201C367.613 96.3601 370.685 97.7681 376.445 97.7681C381.181 97.7681 384.637 97.0001 384.637 95.0801C384.637 91.8801 378.237 94.6961 377.469 86.7601ZM351.485 94.1841C342.269 94.1841 336.125 86.7601 336.125 77.4161C336.125 69.4801 342.141 64.1041 350.845 64.1041C358.397 64.1041 363.645 68.3281 364.925 74.3441L365.437 80.1041C365.693 87.9121 360.061 94.1841 351.485 94.1841Z" fill="#35DF92"/>
<path d="M403.336 98.2801C407.816 98.2801 411.4 95.5921 411.4 90.7281C411.4 85.6081 407.816 82.9201 403.336 82.9201C398.728 82.9201 395.144 85.6081 395.144 90.7281C395.144 95.5921 398.728 98.2801 403.336 98.2801Z" fill="white"/>
<path d="M448.801 98.2801C459.041 98.2801 465.185 90.6001 465.185 82.6641C465.185 80.3601 462.113 80.2321 461.345 82.1521C460.833 86.5041 457.505 89.8321 451.873 89.8321C447.137 89.8321 443.809 86.1201 443.809 79.0801V40.6801H461.473C462.497 40.6801 463.393 39.9121 463.393 38.7601V37.4801C463.393 36.4561 462.497 35.5601 461.473 35.5601H443.809L443.681 23.4001C443.681 21.7361 443.169 20.8401 441.633 20.8401H440.353C439.201 20.8401 438.305 21.7361 438.177 23.4001C437.537 30.6961 434.593 35.5601 428.449 35.5601H423.841C422.561 35.5601 421.921 36.3281 421.921 37.4801V38.7601C421.921 39.9121 422.689 40.6801 423.841 40.6801H432.289V78.9521C432.289 92.0081 438.945 98.2801 448.801 98.2801Z" fill="white"/>
<path d="M536.931 35.5601H524.003C522.851 35.5601 522.083 36.0721 522.083 37.0961V37.4801C522.083 39.7841 528.739 39.9121 526.563 45.8001L509.027 88.9361L490.979 44.6481C489.443 40.5521 494.435 39.4001 494.435 37.4801V37.0961C494.435 36.2001 493.667 35.5601 492.643 35.5601H474.851C473.699 35.5601 472.931 36.0721 472.931 36.9681V37.3521C472.931 39.7841 476.387 40.2961 478.435 44.5201L501.347 94.4401C502.115 96.1041 503.011 97.0001 504.803 97.0001H508.771C510.435 97.0001 511.459 96.1041 512.099 94.4401L532.323 44.5201C533.987 40.2961 538.851 39.7841 538.851 37.3521V36.9681C538.851 36.0721 538.083 35.5601 536.931 35.5601Z" fill="white"/>
</svg>
