<svg width="653" height="99" viewBox="0 0 653 99" fill="none" xmlns="http://www.w3.org/2000/svg">
<path d="M517.192 98.44C521.672 98.44 525.256 95.752 525.256 90.888C525.256 85.768 521.672 83.08 517.192 83.08C512.584 83.08 509 85.768 509 90.888C509 95.752 512.584 98.44 517.192 98.44Z" fill="white"/>
<path d="M562.657 98.44C572.897 98.44 579.041 90.76 579.041 82.824C579.041 80.52 575.969 80.392 575.201 82.312C574.689 86.664 571.361 89.992 565.729 89.992C560.993 89.992 557.665 86.28 557.665 79.24V40.84H575.329C576.353 40.84 577.249 40.072 577.249 38.92V37.64C577.249 36.616 576.353 35.72 575.329 35.72H557.665L557.537 23.56C557.537 21.896 557.025 21 555.489 21H554.209C553.057 21 552.161 21.896 552.033 23.56C551.393 30.856 548.449 35.72 542.305 35.72H537.697C536.417 35.72 535.777 36.488 535.777 37.64V38.92C535.777 40.072 536.545 40.84 537.697 40.84H546.145V79.112C546.145 92.168 552.801 98.44 562.657 98.44Z" fill="white"/>
<path d="M650.787 35.72H637.859C636.707 35.72 635.939 36.232 635.939 37.256V37.64C635.939 39.944 642.595 40.072 640.419 45.96L622.883 89.096L604.835 44.808C603.299 40.712 608.291 39.56 608.291 37.64V37.256C608.291 36.36 607.523 35.72 606.499 35.72H588.707C587.555 35.72 586.787 36.232 586.787 37.128V37.512C586.787 39.944 590.243 40.456 592.291 44.68L615.203 94.6C615.971 96.264 616.867 97.16 618.659 97.16H622.627C624.291 97.16 625.315 96.264 625.955 94.6L646.179 44.68C647.843 40.456 652.707 39.944 652.707 37.512V37.128C652.707 36.232 651.939 35.72 650.787 35.72Z" fill="white"/>
<path d="M26.952 97.4076C42.824 97.4076 52.808 89.7276 52.808 80.1276C52.808 54.5276 13.768 67.0716 13.768 48.6396C13.768 42.2396 19.528 37.5036 26.952 37.5036C42.696 37.5036 39.496 53.1196 46.792 53.1196C49.352 53.1196 51.4 51.1996 51.4 48.6396C51.4 41.7276 42.312 33.5356 26.44 33.5356C12.36 33.5356 2.37602 41.2156 2.37602 51.0716C2.37602 76.2876 41.544 63.6156 41.544 82.4316C41.544 89.7276 35.144 93.6956 26.952 93.6956C9.80002 93.6956 13.896 78.0796 5.96002 78.0796C3.01602 78.0796 0.968018 79.7436 0.968018 82.8156C0.968018 88.8316 9.92802 97.4076 26.952 97.4076Z" fill="#35DF92"/>
<path d="M128.046 87.0396L126.638 61.3116C125.486 41.9836 114.99 33.5356 102.446 33.5356C94.254 33.5356 87.342 37.5036 83.374 43.6476L83.63 2.17559C83.63 0.255586 82.222 -0.64041 79.918 0.511591L69.422 5.11959C68.27 5.63159 67.63 6.27159 67.63 7.29559V7.67959C67.63 9.72759 72.494 9.98359 72.494 14.9756V87.2956C72.494 91.7756 67.758 91.6476 67.758 94.2076V94.5916C67.758 95.6156 68.654 96.2556 70.19 96.2556H86.19C87.726 96.2556 88.878 95.6156 88.878 94.5916V94.2076C88.878 91.6476 83.758 91.7756 83.758 87.2956V56.1916C83.758 46.0796 90.286 38.5276 99.758 38.5276C108.59 38.5276 114.862 45.9516 115.502 61.0556L116.782 87.1676C117.038 91.6476 112.174 91.7756 112.174 94.2076V94.7196C112.174 95.7436 113.198 96.2556 114.734 96.2556H130.094C131.63 96.2556 132.654 95.7436 132.654 94.7196V94.2076C132.654 91.7756 128.43 91.6476 128.046 87.0396Z" fill="#35DF92"/>
<path d="M199.644 86.0156L197.084 60.5436C195.42 43.6476 185.948 33.5356 170.204 33.5356C156.252 33.5356 147.548 40.7036 147.548 47.4876C147.548 50.4316 149.468 52.2236 152.54 52.2236C158.94 52.2236 156.892 37.6316 170.204 37.6316C180.444 37.6316 184.54 45.8236 185.948 60.9276L186.204 64.3836C182.748 61.1836 177.244 59.2636 170.46 59.2636C157.148 59.2636 146.908 65.9196 147.036 78.2076C147.036 90.4956 156.764 97.5356 170.844 97.5356C180.188 97.5356 186.332 93.9516 189.276 88.5756C189.788 95.6156 192.86 97.0236 198.62 97.0236C203.356 97.0236 206.812 96.2556 206.812 94.3356C206.812 91.1356 200.412 93.9516 199.644 86.0156ZM173.66 93.4396C164.444 93.4396 158.3 86.0156 158.3 76.6716C158.3 68.7356 164.316 63.3596 173.02 63.3596C180.572 63.3596 185.82 67.5836 187.1 73.5996L187.612 79.3596C187.868 87.1676 182.236 93.4396 173.66 93.4396Z" fill="#35DF92"/>
<path d="M278.346 87.0396L276.938 61.3116C275.786 41.9836 265.29 33.5356 252.746 33.5356C244.554 33.5356 237.642 37.5036 233.674 43.6476L233.93 2.17559C233.93 0.255586 232.522 -0.64041 230.218 0.511591L219.722 5.11959C218.57 5.63159 217.93 6.27159 217.93 7.29559V7.67959C217.93 9.72759 222.794 9.98359 222.794 14.9756V87.2956C222.794 91.7756 218.058 91.6476 218.058 94.2076V94.5916C218.058 95.6156 218.954 96.2556 220.49 96.2556H236.49C238.026 96.2556 239.178 95.6156 239.178 94.5916V94.2076C239.178 91.6476 234.058 91.7756 234.058 87.2956V56.1916C234.058 46.0796 240.586 38.5276 250.058 38.5276C258.89 38.5276 265.162 45.9516 265.802 61.0556L267.082 87.1676C267.338 91.6476 262.474 91.7756 262.474 94.2076V94.7196C262.474 95.7436 263.498 96.2556 265.034 96.2556H280.394C281.93 96.2556 282.954 95.7436 282.954 94.7196V94.2076C282.954 91.7756 278.73 91.6476 278.346 87.0396Z" fill="#35DF92"/>
<path d="M329.208 33.5356C321.272 33.5356 315.384 37.8876 312.568 46.0796V35.8396C312.568 33.9196 311.672 32.8956 309.24 34.0476L299.512 38.3996C298.36 39.0396 297.592 39.8076 297.592 40.7036V40.9596C297.592 43.3916 302.712 43.5196 302.712 48.3836V87.2956C302.712 91.7756 297.976 91.9036 297.976 94.2076V94.7196C297.976 95.7436 298.872 96.2556 300.536 96.2556H316.408C318.072 96.2556 318.968 95.7436 318.968 94.7196V94.2076C318.968 91.9036 313.592 91.7756 313.592 87.2956V58.1116C313.592 48.5116 317.432 40.4476 324.472 40.4476C332.408 40.4476 329.208 49.4076 335.864 49.4076C339.448 49.4076 340.984 46.7196 340.984 43.3916C340.984 38.0156 336.888 33.5356 329.208 33.5356Z" fill="#35DF92"/>
<path d="M409.958 85.2476V35.5836C409.958 33.9196 408.806 33.6636 406.63 34.0476L395.75 35.9676C394.47 36.2236 393.83 36.9916 393.83 37.8876V38.2716C393.83 40.5756 398.822 40.8316 398.822 45.6956V73.0876C398.822 84.8636 391.654 92.5436 382.566 92.5436C372.838 92.5436 367.462 84.0956 367.462 69.2476L367.59 35.5836C367.59 33.9196 366.31 33.6636 364.134 34.0476L353.382 35.9676C352.23 36.2236 351.462 36.9916 351.462 37.8876V38.2716C351.462 40.4476 356.198 40.8316 356.198 45.6956V68.3516C356.198 87.2956 365.926 97.5356 379.878 97.5356C388.966 97.5356 395.878 93.5676 399.59 86.7836L399.846 87.5516C399.59 94.7196 403.43 97.0236 409.19 97.0236C414.566 97.0236 417.126 96.5116 417.126 94.3356C417.126 90.6236 409.958 94.5916 409.958 85.2476Z" fill="#35DF92"/>
<path d="M488.349 88.9596L464.157 57.7276L479.389 43.6476C483.357 40.1916 488.349 39.0396 488.349 36.6076V36.2236C488.349 35.3276 487.581 34.8156 486.557 34.8156H472.093C470.941 34.8156 470.045 35.3276 470.045 36.3516V36.7356C470.045 39.0396 476.189 40.8316 472.861 43.7756L447.005 66.5596V2.30359C447.005 0.639589 445.469 -0.64041 442.909 0.511591L432.541 5.37559C431.389 6.01559 430.749 6.39959 430.749 7.42359V7.67959C430.749 9.59959 435.741 10.3676 435.741 15.3596V87.2956C435.741 91.7756 431.133 91.6476 431.133 94.2076V94.5916C431.133 95.6156 432.157 96.2556 433.693 96.2556H449.309C450.973 96.2556 451.997 95.6156 451.997 94.5916V94.2076C451.997 91.6476 447.005 91.7756 447.005 87.2956V73.4716L456.733 64.5116L476.189 88.9596C478.621 91.9036 473.885 92.0316 473.885 94.4636V94.7196C473.885 95.6156 474.653 96.2556 475.805 96.2556H492.829C493.981 96.2556 494.749 95.7436 494.749 94.7196V94.4636C494.749 92.1596 490.653 91.9036 488.349 88.9596Z" fill="#35DF92"/>
</svg>
