<svg width="811" height="106" viewBox="0 0 811 106" fill="none" xmlns="http://www.w3.org/2000/svg">
<path d="M675.224 102.44C679.704 102.44 683.288 99.752 683.288 94.888C683.288 89.768 679.704 87.08 675.224 87.08C670.616 87.08 667.032 89.768 667.032 94.888C667.032 99.752 670.616 102.44 675.224 102.44Z" fill="#35DF92"/>
<path d="M720.689 102.44C730.929 102.44 737.073 94.76 737.073 86.824C737.073 84.52 734.001 84.392 733.233 86.312C732.721 90.664 729.393 93.992 723.761 93.992C719.025 93.992 715.697 90.28 715.697 83.24V44.84H733.361C734.385 44.84 735.281 44.072 735.281 42.92V41.64C735.281 40.616 734.385 39.72 733.361 39.72H715.697L715.569 27.56C715.569 25.896 715.057 25 713.521 25H712.241C711.089 25 710.193 25.896 710.065 27.56C709.425 34.856 706.481 39.72 700.337 39.72H695.729C694.449 39.72 693.809 40.488 693.809 41.64V42.92C693.809 44.072 694.577 44.84 695.729 44.84H704.177V83.112C704.177 96.168 710.833 102.44 720.689 102.44Z" fill="#35DF92"/>
<path d="M808.819 39.72H795.891C794.739 39.72 793.971 40.232 793.971 41.256V41.64C793.971 43.944 800.627 44.072 798.451 49.96L780.915 93.096L762.867 48.808C761.331 44.712 766.323 43.56 766.323 41.64V41.256C766.323 40.36 765.555 39.72 764.531 39.72H746.739C745.587 39.72 744.819 40.232 744.819 41.128V41.512C744.819 43.944 748.275 44.456 750.323 48.68L773.235 98.6C774.003 100.264 774.899 101.16 776.691 101.16H780.659C782.323 101.16 783.347 100.264 783.987 98.6L804.211 48.68C805.875 44.456 810.739 43.944 810.739 41.512V41.128C810.739 40.232 809.971 39.72 808.819 39.72Z" fill="#35DF92"/>
<path d="M184.984 101.408C200.856 101.408 210.84 93.7276 210.84 84.1276C210.84 58.5276 171.8 71.0716 171.8 52.6396C171.8 46.2396 177.56 41.5036 184.984 41.5036C200.728 41.5036 197.528 57.1196 204.824 57.1196C207.384 57.1196 209.432 55.1996 209.432 52.6396C209.432 45.7276 200.344 37.5356 184.472 37.5356C170.392 37.5356 160.408 45.2156 160.408 55.0716C160.408 80.2876 199.576 67.6156 199.576 86.4316C199.576 93.7276 193.176 97.6956 184.984 97.6956C167.832 97.6956 171.928 82.0796 163.992 82.0796C161.048 82.0796 159 83.7436 159 86.8156C159 92.8316 167.96 101.408 184.984 101.408Z" fill="white"/>
<path d="M286.078 91.0396L284.67 65.3116C283.518 45.9836 273.022 37.5356 260.478 37.5356C252.286 37.5356 245.374 41.5036 241.406 47.6476L241.662 6.17559C241.662 4.25559 240.254 3.35959 237.95 4.51159L227.454 9.11959C226.302 9.63159 225.662 10.2716 225.662 11.2956V11.6796C225.662 13.7276 230.526 13.9836 230.526 18.9756V91.2956C230.526 95.7756 225.79 95.6476 225.79 98.2076V98.5916C225.79 99.6156 226.686 100.256 228.222 100.256H244.222C245.758 100.256 246.91 99.6156 246.91 98.5916V98.2076C246.91 95.6476 241.79 95.7756 241.79 91.2956V60.1916C241.79 50.0796 248.318 42.5276 257.79 42.5276C266.622 42.5276 272.894 49.9516 273.534 65.0556L274.814 91.1676C275.07 95.6476 270.206 95.7756 270.206 98.2076V98.7196C270.206 99.7436 271.23 100.256 272.766 100.256H288.126C289.662 100.256 290.686 99.7436 290.686 98.7196V98.2076C290.686 95.7756 286.462 95.6476 286.078 91.0396Z" fill="white"/>
<path d="M357.676 90.0156L355.116 64.5436C353.452 47.6476 343.98 37.5356 328.236 37.5356C314.284 37.5356 305.58 44.7036 305.58 51.4876C305.58 54.4316 307.5 56.2236 310.572 56.2236C316.972 56.2236 314.924 41.6316 328.236 41.6316C338.476 41.6316 342.572 49.8236 343.98 64.9276L344.236 68.3836C340.78 65.1836 335.276 63.2636 328.492 63.2636C315.18 63.2636 304.94 69.9196 305.068 82.2076C305.068 94.4956 314.796 101.536 328.876 101.536C338.22 101.536 344.364 97.9516 347.308 92.5756C347.82 99.6156 350.892 101.024 356.652 101.024C361.388 101.024 364.844 100.256 364.844 98.3356C364.844 95.1356 358.444 97.9516 357.676 90.0156ZM331.692 97.4396C322.476 97.4396 316.332 90.0156 316.332 80.6716C316.332 72.7356 322.348 67.3596 331.052 67.3596C338.604 67.3596 343.852 71.5836 345.132 77.5996L345.644 83.3596C345.9 91.1676 340.268 97.4396 331.692 97.4396Z" fill="white"/>
<path d="M436.378 91.0396L434.97 65.3116C433.818 45.9836 423.322 37.5356 410.778 37.5356C402.586 37.5356 395.674 41.5036 391.706 47.6476L391.962 6.17559C391.962 4.25559 390.554 3.35959 388.25 4.51159L377.754 9.11959C376.602 9.63159 375.962 10.2716 375.962 11.2956V11.6796C375.962 13.7276 380.826 13.9836 380.826 18.9756V91.2956C380.826 95.7756 376.09 95.6476 376.09 98.2076V98.5916C376.09 99.6156 376.986 100.256 378.522 100.256H394.522C396.058 100.256 397.21 99.6156 397.21 98.5916V98.2076C397.21 95.6476 392.09 95.7756 392.09 91.2956V60.1916C392.09 50.0796 398.618 42.5276 408.09 42.5276C416.922 42.5276 423.194 49.9516 423.834 65.0556L425.114 91.1676C425.37 95.6476 420.506 95.7756 420.506 98.2076V98.7196C420.506 99.7436 421.53 100.256 423.066 100.256H438.426C439.962 100.256 440.986 99.7436 440.986 98.7196V98.2076C440.986 95.7756 436.762 95.6476 436.378 91.0396Z" fill="white"/>
<path d="M487.24 37.5356C479.304 37.5356 473.416 41.8876 470.6 50.0796V39.8396C470.6 37.9196 469.704 36.8956 467.272 38.0476L457.544 42.3996C456.392 43.0396 455.624 43.8076 455.624 44.7036V44.9596C455.624 47.3916 460.744 47.5196 460.744 52.3836V91.2956C460.744 95.7756 456.008 95.9036 456.008 98.2076V98.7196C456.008 99.7436 456.904 100.256 458.568 100.256H474.44C476.104 100.256 477 99.7436 477 98.7196V98.2076C477 95.9036 471.624 95.7756 471.624 91.2956V62.1116C471.624 52.5116 475.464 44.4476 482.504 44.4476C490.44 44.4476 487.24 53.4076 493.896 53.4076C497.48 53.4076 499.016 50.7196 499.016 47.3916C499.016 42.0156 494.92 37.5356 487.24 37.5356Z" fill="white"/>
<path d="M567.99 89.2476V39.5836C567.99 37.9196 566.838 37.6636 564.662 38.0476L553.782 39.9676C552.502 40.2236 551.862 40.9916 551.862 41.8876V42.2716C551.862 44.5756 556.854 44.8316 556.854 49.6956V77.0876C556.854 88.8636 549.686 96.5436 540.598 96.5436C530.87 96.5436 525.494 88.0956 525.494 73.2476L525.622 39.5836C525.622 37.9196 524.342 37.6636 522.166 38.0476L511.414 39.9676C510.262 40.2236 509.494 40.9916 509.494 41.8876V42.2716C509.494 44.4476 514.23 44.8316 514.23 49.6956V72.3516C514.23 91.2956 523.958 101.536 537.91 101.536C546.998 101.536 553.91 97.5676 557.622 90.7836L557.878 91.5516C557.622 98.7196 561.462 101.024 567.222 101.024C572.598 101.024 575.158 100.512 575.158 98.3356C575.158 94.6236 567.99 98.5916 567.99 89.2476Z" fill="white"/>
<path d="M646.381 92.9596L622.189 61.7276L637.421 47.6476C641.389 44.1916 646.381 43.0396 646.381 40.6076V40.2236C646.381 39.3276 645.613 38.8156 644.589 38.8156H630.125C628.973 38.8156 628.077 39.3276 628.077 40.3516V40.7356C628.077 43.0396 634.221 44.8316 630.893 47.7756L605.037 70.5596V6.30359C605.037 4.63959 603.501 3.35959 600.941 4.51159L590.573 9.37559C589.421 10.0156 588.781 10.3996 588.781 11.4236V11.6796C588.781 13.5996 593.773 14.3676 593.773 19.3596V91.2956C593.773 95.7756 589.165 95.6476 589.165 98.2076V98.5916C589.165 99.6156 590.189 100.256 591.725 100.256H607.341C609.005 100.256 610.029 99.6156 610.029 98.5916V98.2076C610.029 95.6476 605.037 95.7756 605.037 91.2956V77.4716L614.765 68.5116L634.221 92.9596C636.653 95.9036 631.917 96.0316 631.917 98.4636V98.7196C631.917 99.6156 632.685 100.256 633.837 100.256H650.861C652.013 100.256 652.781 99.7436 652.781 98.7196V98.4636C652.781 96.1596 648.685 95.9036 646.381 92.9596Z" fill="white"/>
<path d="M105.393 14.5229C99.3268 14.5233 93.3966 16.3224 88.3527 19.693C83.3087 23.0636 79.3774 27.8541 77.056 33.4589C74.7346 39.0636 74.1273 45.2309 75.3109 51.1809C76.4945 57.1308 79.4158 62.5962 83.7055 66.8858C87.9952 71.1755 93.4605 74.0969 99.4104 75.2805C105.36 76.464 111.528 75.8568 117.132 73.5353C122.737 71.2139 127.528 67.2827 130.898 62.2387C134.269 57.1947 136.068 51.2645 136.068 45.198C136.068 37.0624 132.837 29.2601 127.084 23.5074C121.331 17.7547 113.529 14.5229 105.393 14.5229V14.5229ZM105.393 51.1951C104.208 51.1951 103.048 50.8434 102.062 50.1846C101.076 49.5258 100.308 48.5894 99.8543 47.4939C99.4005 46.3983 99.2817 45.1929 99.513 44.0299C99.7444 42.8669 100.315 41.7986 101.154 40.9601C101.992 40.1216 103.061 39.5506 104.224 39.3193C105.387 39.0879 106.592 39.2067 107.688 39.6604C108.783 40.1142 109.72 40.8827 110.378 41.8686C111.037 42.8546 111.389 44.0138 111.389 45.1996C111.388 46.7894 110.757 48.3139 109.632 49.4379C108.508 50.562 106.983 51.1934 105.393 51.1934V51.1951Z" fill="#35DF92"/>
<path d="M126.743 37.1349C125.225 33.1317 122.615 29.6346 119.208 27.0415" stroke="white" stroke-width="3" stroke-linejoin="round"/>
<path opacity="0.23" d="M88.3948 104V17.6052H45.1974H2V104H88.3948Z" stroke="white" stroke-width="3" stroke-linecap="round" stroke-linejoin="round"/>
<path d="M105.395 2H19V88.3948H105.395V2Z" stroke="white" stroke-width="3" stroke-linejoin="round"/>
</svg>
