<svg width="250" height="250" viewBox="0 0 250 250" fill="none" xmlns="http://www.w3.org/2000/svg">
<rect width="250" height="250" rx="8" fill="#1EB874"/>
<path d="M77.2715 139.359C84.6174 136.725 87.3638 125.58 83.3953 114.515C79.4278 103.453 70.2246 96.5945 62.8787 99.2291C55.5328 101.864 52.7851 113.009 56.7526 124.071C60.721 135.136 69.9269 141.993 77.2715 139.359Z" fill="white"/>
<path d="M140.658 116.625C148.004 113.991 150.752 102.846 146.784 91.7809C142.816 80.7187 133.612 73.8606 126.266 76.4952C118.921 79.1293 116.175 90.2737 120.142 101.336C124.111 112.401 133.315 119.259 140.658 116.625Z" fill="white"/>
<path d="M193.962 115.449C192.855 114.921 191.534 115.142 190.672 116.017C176.815 129.984 156.567 142.201 133.656 150.418C110.75 158.633 87.3516 162.071 67.7757 160.096C66.5542 159.973 65.3892 160.639 64.8757 161.748C64.3586 162.86 64.6051 164.178 65.4885 165.03C78.5993 177.684 109.199 178.829 139.898 167.819C170.61 156.804 193.506 136.468 195.578 118.369C195.717 117.153 195.066 115.978 193.962 115.449Z" fill="white"/>
</svg>
