<svg width="301" height="58" viewBox="0 0 301 58" fill="none" xmlns="http://www.w3.org/2000/svg">
<path d="M85.625 45.8047H76.3672V19.1094H68V11.5391H93.9688V19.1094H85.625V45.8047Z" fill="white"/>
<path d="M130.93 28.625C130.93 31.2656 130.609 33.6719 129.969 35.8438C129.344 38 128.359 39.8594 127.016 41.4219C125.672 42.9844 123.945 44.1875 121.836 45.0312C119.727 45.8594 117.203 46.2734 114.266 46.2734C111.391 46.2734 108.898 45.8594 106.789 45.0312C104.695 44.1875 102.969 42.9922 101.609 41.4453C100.25 39.8828 99.2422 38.0156 98.5859 35.8438C97.9297 33.6719 97.6016 31.25 97.6016 28.5781C97.6016 25.0156 98.1875 21.9219 99.3594 19.2969C100.547 16.6562 102.375 14.6172 104.844 13.1797C107.312 11.7266 110.469 11 114.312 11C118.219 11 121.391 11.7266 123.828 13.1797C126.281 14.6328 128.078 16.6797 129.219 19.3203C130.359 21.9609 130.93 25.0625 130.93 28.625ZM107.352 28.625C107.352 30.6875 107.586 32.4609 108.055 33.9453C108.523 35.4297 109.266 36.5703 110.281 37.3672C111.297 38.1641 112.625 38.5625 114.266 38.5625C115.969 38.5625 117.32 38.1641 118.32 37.3672C119.336 36.5703 120.062 35.4297 120.5 33.9453C120.953 32.4609 121.18 30.6875 121.18 28.625C121.18 25.5312 120.664 23.0859 119.633 21.2891C118.602 19.4922 116.828 18.5938 114.312 18.5938C112.641 18.5938 111.289 19 110.258 19.8125C109.242 20.625 108.5 21.7812 108.031 23.2812C107.578 24.7812 107.352 26.5625 107.352 28.625Z" fill="white"/>
<path d="M166.25 11.5391V32.1641C166.25 35.0391 165.703 37.5391 164.609 39.6641C163.516 41.7734 161.875 43.4062 159.688 44.5625C157.5 45.7031 154.758 46.2734 151.461 46.2734C146.742 46.2734 143.141 45.0625 140.656 42.6406C138.172 40.2188 136.93 36.7969 136.93 32.375V11.5391H146.234V31.6484C146.234 34.0703 146.688 35.8281 147.594 36.9219C148.5 38.0156 149.836 38.5625 151.602 38.5625C152.867 38.5625 153.898 38.3281 154.695 37.8594C155.492 37.375 156.07 36.6172 156.43 35.5859C156.805 34.5547 156.992 33.2266 156.992 31.6016V11.5391H166.25Z" fill="white"/>
<path d="M184.672 11.5391C187.781 11.5391 190.367 11.9219 192.43 12.6875C194.492 13.4375 196.039 14.5625 197.07 16.0625C198.117 17.5625 198.641 19.4297 198.641 21.6641C198.641 23.0547 198.406 24.3203 197.938 25.4609C197.469 26.6016 196.797 27.625 195.922 28.5312C195.062 29.4219 194.031 30.2031 192.828 30.875L202.812 45.8047H192.312L185.047 33.3359H182.703V45.8047H173.445V11.5391H184.672ZM184.531 18.5469H182.703V26.375H184.438C185.859 26.375 187.023 26.0625 187.93 25.4375C188.836 24.8125 189.289 23.6953 189.289 22.0859C189.289 20.9766 188.914 20.1094 188.164 19.4844C187.414 18.8594 186.203 18.5469 184.531 18.5469Z" fill="white"/>
<path d="M205.93 45.8047V11.5391H215.188V38.3281H228.383V45.8047H205.93Z" fill="white"/>
<path d="M264.734 45.8047H254.023L247.344 35.0938L240.734 45.8047H230.258L241.625 28.2734L230.938 11.5391H241.203L247.391 22.1328L253.344 11.5391H263.914L253.062 29L264.734 45.8047Z" fill="white"/>
<path d="M300.664 28.625C300.664 31.2656 300.344 33.6719 299.703 35.8438C299.078 38 298.094 39.8594 296.75 41.4219C295.406 42.9844 293.68 44.1875 291.57 45.0312C289.461 45.8594 286.938 46.2734 284 46.2734C281.125 46.2734 278.633 45.8594 276.523 45.0312C274.43 44.1875 272.703 42.9922 271.344 41.4453C269.984 39.8828 268.977 38.0156 268.32 35.8438C267.664 33.6719 267.336 31.25 267.336 28.5781C267.336 25.0156 267.922 21.9219 269.094 19.2969C270.281 16.6562 272.109 14.6172 274.578 13.1797C277.047 11.7266 280.203 11 284.047 11C287.953 11 291.125 11.7266 293.562 13.1797C296.016 14.6328 297.812 16.6797 298.953 19.3203C300.094 21.9609 300.664 25.0625 300.664 28.625ZM277.086 28.625C277.086 30.6875 277.32 32.4609 277.789 33.9453C278.258 35.4297 279 36.5703 280.016 37.3672C281.031 38.1641 282.359 38.5625 284 38.5625C285.703 38.5625 287.055 38.1641 288.055 37.3672C289.07 36.5703 289.797 35.4297 290.234 33.9453C290.688 32.4609 290.914 30.6875 290.914 28.625C290.914 25.5312 290.398 23.0859 289.367 21.2891C288.336 19.4922 286.562 18.5938 284.047 18.5938C282.375 18.5938 281.023 19 279.992 19.8125C278.977 20.625 278.234 21.7812 277.766 23.2812C277.312 24.7812 277.086 26.5625 277.086 28.625Z" fill="white"/>
<path fill-rule="evenodd" clip-rule="evenodd" d="M15.0383 20.967C13.622 23.4306 12.8787 26.2235 12.8832 29.0652C12.8832 38.0371 20.1423 45.3125 29.0979 45.3125C38.0534 45.3125 45.3125 38.0389 45.3125 29.0652C45.3125 20.0934 38.0534 12.818 29.0979 12.818C26.2309 12.8139 23.4147 13.5747 20.9398 15.022C20.4829 14.1557 19.7488 13.4676 18.8548 13.0676C17.9608 12.6676 16.9585 12.5789 16.0082 12.8156C15.0578 13.0523 14.2142 13.6008 13.6122 14.3733C13.0103 15.1459 12.6847 16.098 12.6875 17.0774C12.6867 17.8786 12.9054 18.6647 13.3198 19.3504C13.7343 20.0361 14.3286 20.5952 15.0383 20.967ZM29 58C12.9829 58 0 45.0171 0 29C0 12.9829 12.9829 0 29 0C45.0171 0 58 12.9829 58 29C58 45.0171 45.0171 58 29 58ZM29.0979 37.0584C24.6935 37.0584 21.1229 33.4805 21.1229 29.0652C21.1229 24.65 24.6935 21.0721 29.0979 21.0721C33.5023 21.0721 37.0729 24.6518 37.0729 29.0652C37.0729 33.4787 33.5023 37.0584 29.0979 37.0584V37.0584Z" fill="white"/>
</svg>
